<svg viewBox="0 0 488 492">
  <defs>
    <clipPath id="clip-amostras">
      <rect width="488" height="492"/>
    </clipPath>
  </defs>
  <g id="amostras" clip-path="url(#clip-amostras)">
    <path id="bolinha1" d="M16,41.917H31.743V57.66H16Z" transform="translate(102.06 282.142)" fill="#aca8c1"/>
    <path id="bolinha2" d="M18,45.917H33.743V61.659H18Z" transform="translate(115.802 309.627)" fill="#aca8c1"/>
    <path id="bolinha3" d="M31,41.917H46.742V57.66H31Z" transform="translate(205.128 282.142)" fill="#aca8c1"/>
    <path id="bolinha4" d="M30,45.917H45.742V61.659H30Z" transform="translate(198.257 309.627)" fill="#aca8c1"/>
    <path id="bolinha5" d="M46,41.917H61.742V57.66H46Z" transform="translate(308.197 282.142)" fill="#aca8c1"/>
    <path id="bolinha6" d="M44,46.917H59.742V62.66H44Z" transform="translate(294.455 316.498)" fill="#aca8c1"/>
    <path id="frascos" d="M434.919,151.554H395.563V80.712H411.3v-55.1A23.614,23.614,0,0,0,387.693,2H308.979a23.464,23.464,0,0,0-15.742,6.14A23.464,23.464,0,0,0,277.494,2H198.781a23.464,23.464,0,0,0-15.743,6.14A23.464,23.464,0,0,0,167.3,2H88.584A23.614,23.614,0,0,0,64.97,25.614v55.1H80.712v70.841H41.356A39.4,39.4,0,0,0,2,190.91V466.4a7.871,7.871,0,0,0,7.871,7.871H57.1a7.871,7.871,0,0,0,7.87-7.87V442.79H411.3V466.4a7.871,7.871,0,0,0,7.871,7.871H466.4a7.871,7.871,0,0,0,7.871-7.871V190.91a39.4,39.4,0,0,0-39.356-39.356ZM301.108,25.614a7.871,7.871,0,0,1,7.871-7.871h78.712a7.871,7.871,0,0,1,7.871,7.871V64.97H371.949V33.485H356.206V64.97H340.464V33.485H324.721V64.97H301.108Zm31.485,70.841V222.4H379.82v48.01a38.514,38.514,0,0,0-16.593,8.391,21.693,21.693,0,0,1-29.785,0,38.513,38.513,0,0,0-16.593-8.391V80.712h62.97V96.455ZM379.82,112.2v94.455H348.335V112.2Zm0,174.584v76.642a31.485,31.485,0,1,1-62.97,0V286.782a32.2,32.2,0,0,1,7.021,4.5,37.215,37.215,0,0,0,48.928,0,32.2,32.2,0,0,1,7.021-4.5ZM301.108,80.712v70.841H285.365V80.712Zm0,86.584v31.485H285.365V167.3ZM190.91,25.614a7.871,7.871,0,0,1,7.871-7.871h78.713a7.871,7.871,0,0,1,7.871,7.871V64.97H261.751V33.485H246.009V64.97H230.266V33.485H214.524V64.97H190.91ZM222.4,96.455V222.4h47.228v48.01a38.513,38.513,0,0,0-16.6,8.39,21.693,21.693,0,0,1-29.785,0,38.514,38.514,0,0,0-16.593-8.391V80.712h62.97V96.455ZM269.623,112.2v94.455H238.137V112.2Zm0,174.584v76.642a31.485,31.485,0,1,1-62.97,0V286.782a32.192,32.192,0,0,1,7.021,4.5,37.215,37.215,0,0,0,48.928,0,32.194,32.194,0,0,1,7.021-4.5ZM190.91,80.712v70.841H175.167V80.712Zm0,86.584v31.485H175.167V167.3ZM80.712,25.614a7.871,7.871,0,0,1,7.871-7.871H167.3a7.871,7.871,0,0,1,7.871,7.871V64.97H151.554V33.485H135.811V64.97H120.069V33.485H104.326V64.97H80.712Zm62.12,253.179a21.693,21.693,0,0,1-29.785,0,38.513,38.513,0,0,0-16.593-8.383V222.4h47.228V96.455H96.455V80.713h62.97v189.7a38.513,38.513,0,0,0-16.593,8.383Zm16.593,7.989v76.642a31.485,31.485,0,0,1-62.97,0V286.782a32.192,32.192,0,0,1,7.021,4.5,37.215,37.215,0,0,0,48.928,0,32.2,32.2,0,0,1,7.021-4.5Zm-62.97-80.129V112.2H127.94v94.455ZM49.227,458.533H17.742V364.077H49.227Zm0-110.2H17.742V332.592H49.227Zm0-31.485H17.742v-15.74H49.227Zm0-31.485H17.742v-15.74H49.227ZM57.1,198.781a7.871,7.871,0,0,0-7.871,7.871V253.88H17.742V190.91a23.613,23.613,0,0,1,23.61-23.61h39.36v31.485ZM411.3,427.047H64.97V214.524H80.712v148.9a47.228,47.228,0,1,0,94.455,0v-148.9H190.91v148.9a47.228,47.228,0,1,0,94.455,0v-148.9h15.742v148.9a47.228,47.228,0,0,0,94.455,0v-148.9H411.3Zm47.228,31.485H427.047V364.077h31.485Zm0-110.2H427.047v-15.74h31.485Zm0-31.485H427.047V301.108h31.485Zm0-31.485H427.047V269.623h31.485Zm0-31.485H427.047V206.652a7.871,7.871,0,0,0-7.871-7.871H395.563V167.3h39.356a23.614,23.614,0,0,1,23.614,23.614Z" transform="translate(5.862 7.862)" fill="#aca8c1"/>
  </g>
</svg>
