<svg xmlns="http://www.w3.org/2000/svg" xmlns:xlink="http://www.w3.org/1999/xlink" width="539" height="542" viewBox="0 0 539 542">
  <defs>
    <clipPath id="clip-continuanova">
      <rect width="539" height="542"/>
    </clipPath>
  </defs>
  <g id="continuanova" clip-path="url(#clip-continuanova)">
    <path id="continuanova-2" data-name="continuanova" d="M464,472v-8H384v8a8,8,0,1,1-16,0v-8H296v8a8,8,0,1,1-16,0v-8H208v8a8,8,0,1,1-16,0v-8H120v8a8,8,0,1,1-16,0v-8H32v8a8,8,0,1,1-16,0v-8H8a8,8,0,1,1,0-16h8V376H8a8,8,0,0,1,0-16h8V288H8a8,8,0,1,1,0-16h8V200H8a8,8,0,1,1,0-16h8V112H8A8,8,0,1,1,8,96h8V16H8A8,8,0,0,1,8,0H24a8,8,0,0,1,8,8V368.864l78.127-142.048,88.537,88.528,84.28-130.256,85.6-23.343,7.8-85.865L451.2,16H416V0h64V64H464V26.248L391.68,84.12l-8.2,90.136L377.08,176H384v16H368V178.472l-74.921,20.44L287.2,208H296v16H280v-4.912L204.352,336H208v16H192V336h4.688l-80-80h-4.36L32,402.048V448h72V432h16v16h72V432h16v16h72V432h16v16h72V432h16v16h80V432h16v40a8,8,0,1,1-16,0Zm0-56V400h16v16Zm-96,0V400h16v16Zm-88,0V400h16v16Zm-88,0V400h16v16Zm-88,0V400h16v16Zm360-32V368h16v16Zm-96,0V368h16v16Zm-88,0V368h16v16Zm-88,0V368h16v16Zm-88,0V368h16v16Zm360-32V336h16v16Zm-96,0V336h16v16Zm-88,0V336h16v16Zm-176,0V336h16v16Zm360-32V304h16v16Zm-96,0V304h16v16Zm-88,0V304h16v16Zm-176,0V304h16v16Zm360-32V272h16v16Zm-96,0V272h16v16Zm-88,0V272h16v16Zm-176,0V272h16v16Zm360-32V240h16v16Zm-96,0V240h16v16Zm-88,0V240h16v16Zm184-32V208h16v16Zm-96,0V208h16v16Zm96-32V176h16v16Zm0-32V144h16v16Zm0-32V112h16v16ZM48,120V104h96v16ZM464,96V80h16V96ZM48,88V72h96V88Zm0-32V40H176V56Zm0-32V8H176V24Z" transform="translate(27 34)" fill="#aca8c1"/>
  </g>
</svg>
