<svg xmlns="http://www.w3.org/2000/svg" xmlns:xlink="http://www.w3.org/1999/xlink" width="545" height="548" viewBox="0 0 545 548">
  <defs>
    <clipPath id="clip-continua">
      <rect width="545" height="548"/>
    </clipPath>
  </defs>
  <g id="continua" clip-path="url(#clip-continua)">
    <g id="aaa" transform="translate(33 34)">
      <g id="Grupo_24" data-name="Grupo 24">
        <g id="Grupo_23" data-name="Grupo 23">
          <rect id="Retângulo_6" data-name="Retângulo 6" width="128" height="16" transform="translate(48 40)" fill="#aca8c1"/>
        </g>
      </g>
      <g id="Grupo_26" data-name="Grupo 26">
        <g id="Grupo_25" data-name="Grupo 25">
          <rect id="Retângulo_7" data-name="Retângulo 7" width="128" height="16" transform="translate(48 8)" fill="#aca8c1"/>
        </g>
      </g>
      <g id="Grupo_28" data-name="Grupo 28">
        <g id="Grupo_27" data-name="Grupo 27">
          <path id="Caminho_22" data-name="Caminho 22" d="M480,64V0H416V16h35.2L376.344,75.88l-7.8,85.864-85.6,23.344-84.28,130.256-88.536-88.528L32,368.864V8a8,8,0,0,0-8-8H8A8,8,0,0,0,8,16h8V96H8a8,8,0,0,0,0,16h8v72H8a8,8,0,0,0,0,16h8v72H8a8,8,0,0,0,0,16h8v72H8a8,8,0,0,0,0,16h8v72H8a8,8,0,0,0,0,16h8v8a8,8,0,0,0,16,0v-8h72v8a8,8,0,0,0,16,0v-8h72v8a8,8,0,0,0,16,0v-8h72v8a8,8,0,0,0,16,0v-8h72v8a8,8,0,0,0,16,0v-8h80v8a8,8,0,0,0,16,0V432H464v16H384V432H368v16H296V432H280v16H208V432H192v16H120V432H104v16H32V402.048L112.328,256h4.36l80,80H192v16h16V336h-3.648L280,219.088V224h16V208h-8.8l5.88-9.088L368,178.472V192h16V176h-6.92l6.4-1.744,8.2-90.136L464,26.248V64Z" fill="#aca8c1"/>
        </g>
      </g>
      <g id="Grupo_30" data-name="Grupo 30">
        <g id="Grupo_29" data-name="Grupo 29">
          <rect id="Retângulo_8" data-name="Retângulo 8" width="96" height="16" transform="translate(48 72)" fill="#aca8c1"/>
        </g>
      </g>
      <g id="Grupo_32" data-name="Grupo 32">
        <g id="Grupo_31" data-name="Grupo 31">
          <rect id="Retângulo_9" data-name="Retângulo 9" width="96" height="16" transform="translate(48 104)" fill="#aca8c1"/>
        </g>
      </g>
      <g id="Grupo_34" data-name="Grupo 34">
        <g id="Grupo_33" data-name="Grupo 33">
          <rect id="Retângulo_10" data-name="Retângulo 10" width="16" height="16" transform="translate(104 400)" fill="#aca8c1"/>
        </g>
      </g>
      <g id="Grupo_36" data-name="Grupo 36">
        <g id="Grupo_35" data-name="Grupo 35">
          <rect id="Retângulo_11" data-name="Retângulo 11" width="16" height="16" transform="translate(104 368)" fill="#aca8c1"/>
        </g>
      </g>
      <g id="Grupo_38" data-name="Grupo 38">
        <g id="Grupo_37" data-name="Grupo 37">
          <rect id="Retângulo_12" data-name="Retângulo 12" width="16" height="16" transform="translate(104 336)" fill="#aca8c1"/>
        </g>
      </g>
      <g id="Grupo_40" data-name="Grupo 40">
        <g id="Grupo_39" data-name="Grupo 39">
          <rect id="Retângulo_13" data-name="Retângulo 13" width="16" height="16" transform="translate(104 304)" fill="#aca8c1"/>
        </g>
      </g>
      <g id="Grupo_42" data-name="Grupo 42">
        <g id="Grupo_41" data-name="Grupo 41">
          <rect id="Retângulo_14" data-name="Retângulo 14" width="16" height="16" transform="translate(104 272)" fill="#aca8c1"/>
        </g>
      </g>
      <g id="Grupo_44" data-name="Grupo 44">
        <g id="Grupo_43" data-name="Grupo 43">
          <rect id="Retângulo_15" data-name="Retângulo 15" width="16" height="16" transform="translate(192 400)" fill="#aca8c1"/>
        </g>
      </g>
      <g id="Grupo_46" data-name="Grupo 46">
        <g id="Grupo_45" data-name="Grupo 45">
          <rect id="Retângulo_16" data-name="Retângulo 16" width="16" height="16" transform="translate(192 368)" fill="#aca8c1"/>
        </g>
      </g>
      <g id="Grupo_48" data-name="Grupo 48">
        <g id="Grupo_47" data-name="Grupo 47">
          <rect id="Retângulo_17" data-name="Retângulo 17" width="16" height="16" transform="translate(280 400)" fill="#aca8c1"/>
        </g>
      </g>
      <g id="Grupo_50" data-name="Grupo 50">
        <g id="Grupo_49" data-name="Grupo 49">
          <rect id="Retângulo_18" data-name="Retângulo 18" width="16" height="16" transform="translate(280 368)" fill="#aca8c1"/>
        </g>
      </g>
      <g id="Grupo_52" data-name="Grupo 52">
        <g id="Grupo_51" data-name="Grupo 51">
          <rect id="Retângulo_19" data-name="Retângulo 19" width="16" height="16" transform="translate(280 336)" fill="#aca8c1"/>
        </g>
      </g>
      <g id="Grupo_54" data-name="Grupo 54">
        <g id="Grupo_53" data-name="Grupo 53">
          <rect id="Retângulo_20" data-name="Retângulo 20" width="16" height="16" transform="translate(280 304)" fill="#aca8c1"/>
        </g>
      </g>
      <g id="Grupo_56" data-name="Grupo 56">
        <g id="Grupo_55" data-name="Grupo 55">
          <rect id="Retângulo_21" data-name="Retângulo 21" width="16" height="16" transform="translate(280 272)" fill="#aca8c1"/>
        </g>
      </g>
      <g id="Grupo_58" data-name="Grupo 58">
        <g id="Grupo_57" data-name="Grupo 57">
          <rect id="Retângulo_22" data-name="Retângulo 22" width="16" height="16" transform="translate(280 240)" fill="#aca8c1"/>
        </g>
      </g>
      <g id="Grupo_60" data-name="Grupo 60">
        <g id="Grupo_59" data-name="Grupo 59">
          <rect id="Retângulo_23" data-name="Retângulo 23" width="16" height="16" transform="translate(368 400)" fill="#aca8c1"/>
        </g>
      </g>
      <g id="Grupo_62" data-name="Grupo 62">
        <g id="Grupo_61" data-name="Grupo 61">
          <rect id="Retângulo_24" data-name="Retângulo 24" width="16" height="16" transform="translate(368 368)" fill="#aca8c1"/>
        </g>
      </g>
      <g id="Grupo_64" data-name="Grupo 64">
        <g id="Grupo_63" data-name="Grupo 63">
          <rect id="Retângulo_25" data-name="Retângulo 25" width="16" height="16" transform="translate(368 336)" fill="#aca8c1"/>
        </g>
      </g>
      <g id="Grupo_66" data-name="Grupo 66">
        <g id="Grupo_65" data-name="Grupo 65">
          <rect id="Retângulo_26" data-name="Retângulo 26" width="16" height="16" transform="translate(368 304)" fill="#aca8c1"/>
        </g>
      </g>
      <g id="Grupo_68" data-name="Grupo 68">
        <g id="Grupo_67" data-name="Grupo 67">
          <rect id="Retângulo_27" data-name="Retângulo 27" width="16" height="16" transform="translate(368 272)" fill="#aca8c1"/>
        </g>
      </g>
      <g id="Grupo_70" data-name="Grupo 70">
        <g id="Grupo_69" data-name="Grupo 69">
          <rect id="Retângulo_28" data-name="Retângulo 28" width="16" height="16" transform="translate(368 240)" fill="#aca8c1"/>
        </g>
      </g>
      <g id="Grupo_72" data-name="Grupo 72">
        <g id="Grupo_71" data-name="Grupo 71">
          <rect id="Retângulo_29" data-name="Retângulo 29" width="16" height="16" transform="translate(368 208)" fill="#aca8c1"/>
        </g>
      </g>
      <g id="Grupo_74" data-name="Grupo 74">
        <g id="Grupo_73" data-name="Grupo 73">
          <rect id="Retângulo_30" data-name="Retângulo 30" width="16" height="16" transform="translate(464 400)" fill="#aca8c1"/>
        </g>
      </g>
      <g id="Grupo_76" data-name="Grupo 76">
        <g id="Grupo_75" data-name="Grupo 75">
          <rect id="Retângulo_31" data-name="Retângulo 31" width="16" height="16" transform="translate(464 368)" fill="#aca8c1"/>
        </g>
      </g>
      <g id="Grupo_78" data-name="Grupo 78">
        <g id="Grupo_77" data-name="Grupo 77">
          <rect id="Retângulo_32" data-name="Retângulo 32" width="16" height="16" transform="translate(464 336)" fill="#aca8c1"/>
        </g>
      </g>
      <g id="Grupo_80" data-name="Grupo 80">
        <g id="Grupo_79" data-name="Grupo 79">
          <rect id="Retângulo_33" data-name="Retângulo 33" width="16" height="16" transform="translate(464 304)" fill="#aca8c1"/>
        </g>
      </g>
      <g id="Grupo_82" data-name="Grupo 82">
        <g id="Grupo_81" data-name="Grupo 81">
          <rect id="Retângulo_34" data-name="Retângulo 34" width="16" height="16" transform="translate(464 272)" fill="#aca8c1"/>
        </g>
      </g>
      <g id="Grupo_84" data-name="Grupo 84">
        <g id="Grupo_83" data-name="Grupo 83">
          <rect id="Retângulo_35" data-name="Retângulo 35" width="16" height="16" transform="translate(464 240)" fill="#aca8c1"/>
        </g>
      </g>
      <g id="Grupo_86" data-name="Grupo 86">
        <g id="Grupo_85" data-name="Grupo 85">
          <rect id="Retângulo_36" data-name="Retângulo 36" width="16" height="16" transform="translate(464 208)" fill="#aca8c1"/>
        </g>
      </g>
      <g id="Grupo_88" data-name="Grupo 88">
        <g id="Grupo_87" data-name="Grupo 87">
          <rect id="Retângulo_37" data-name="Retângulo 37" width="16" height="16" transform="translate(464 176)" fill="#aca8c1"/>
        </g>
      </g>
      <g id="Grupo_90" data-name="Grupo 90">
        <g id="Grupo_89" data-name="Grupo 89">
          <rect id="Retângulo_38" data-name="Retângulo 38" width="16" height="16" transform="translate(464 144)" fill="#aca8c1"/>
        </g>
      </g>
      <g id="Grupo_92" data-name="Grupo 92">
        <g id="Grupo_91" data-name="Grupo 91">
          <rect id="Retângulo_39" data-name="Retângulo 39" width="16" height="16" transform="translate(464 112)" fill="#aca8c1"/>
        </g>
      </g>
      <g id="Grupo_94" data-name="Grupo 94">
        <g id="Grupo_93" data-name="Grupo 93">
          <rect id="Retângulo_40" data-name="Retângulo 40" width="16" height="16" transform="translate(464 80)" fill="#aca8c1"/>
        </g>
      </g>
    </g>
  </g>
</svg>
