<svg viewBox="0 0 539 542">
  <defs>
    <clipPath id="clip-discretanova">
      <rect width="539" height="542"/>
    </clipPath>
  </defs>
  <g id="discretanova" clip-path="url(#clip-discretanova)">
    <g id="discreta" transform="translate(-6 -6)">
      <path id="discretanova-2" data-name="discretanova" d="M6,486.006v-16H486v16Zm392-32a8,8,0,0,1-8-8v-280a8,8,0,0,1,8-8h56a8,8,0,0,1,8,8v280a8,8,0,0,1-8,8Zm8-16h40v-264H406Zm-96,16a8,8,0,0,1-8-8v-168a8,8,0,0,1,8-8h56a8,8,0,0,1,8,8v168a8,8,0,0,1-8,8Zm8-16h40v-152H318Zm-96,16a8,8,0,0,1-8-8v-112a8,8,0,0,1,8-8h56a8,8,0,0,1,8,8v112a8,8,0,0,1-8,8Zm8-16h40v-96H230Zm-96,16a8,8,0,0,1-8-8v-72a8,8,0,0,1,8-8h56a8,8,0,0,1,8,8v72a8,8,0,0,1-8,8Zm8-16h40v-56H142Zm-96,16a8,8,0,0,1-8-8v-48a8,8,0,0,1,8-8h56a8,8,0,0,1,8,8v48a8,8,0,0,1-8,8Zm8-16H94v-32H54Zm-16.677-88A426.919,426.919,0,0,0,403.28,66.118L415.928,30l-46.352,23.16a8,8,0,1,1-7.152-14.32l64-32h.006a8,8,0,0,1,10.73,3.587l32,64v0a8,8,0,0,1-14.32,7.152L431.3,34.5,418.392,71.4A442.927,442.927,0,0,1,38.68,366.007Zm8.68-184v-16h72v16Zm0-32v-16h72v16Zm0-32v-16H150v16Zm0-32v-16H150v16Z" transform="translate(27 28.001)" fill="#aca8c1"/>
    </g>
  </g>
</svg>
