<svg xmlns="http://www.w3.org/2000/svg" xmlns:xlink="http://www.w3.org/1999/xlink" width="539" height="542" viewBox="0 0 539 542">
  <defs>
    <clipPath id="clip-nominalnova2">
      <rect width="539" height="542"/>
    </clipPath>
  </defs>
  <g id="nominalnova2" clip-path="url(#clip-nominalnova2)">
    <g id="nominal" transform="translate(-5 -5)">
      <path id="chartnominal" d="M35,517A30.032,30.032,0,0,1,5,487V35A30.032,30.032,0,0,1,35,5H302.975a10,10,0,0,1,7.071,2.929l96,96a10,10,0,0,1,2.93,7.07V244a10,10,0,0,1-20,0V121h-66a30.033,30.033,0,0,1-30-30V25H35A10.011,10.011,0,0,0,25,35V487a10.011,10.011,0,0,0,10,10h86V417.375a10,10,0,0,1,10-10h64a10,10,0,0,1,10,10V497h20V360a10,10,0,0,1,10-10h64a10,10,0,0,1,10,10V497h20V290a10,10,0,0,1,10-10h64a10,10,0,0,1,10,10V497h20V349.249a10,10,0,0,1,20,0V497h44V233.749H453v40.5a10,10,0,1,1-20,0v-50.5a10,10,0,0,1,10-10h64a10,10,0,0,1,10,10V507a10,10,0,0,1-10,10Zm314-20h44V300H349Zm-104,0h44V370H245Zm-104,0h44V427.375H141ZM312.975,91a10.011,10.011,0,0,0,10,10h51.859L312.975,39.143ZM69,367.5a10,10,0,1,1,0-20h64a10,10,0,1,1,0,20Zm104.854-6.174a9.986,9.986,0,1,1,9.227,6.169A9.992,9.992,0,0,1,173.854,361.326Zm259.917-47.609A9.988,9.988,0,1,1,443,319.886,10,10,0,0,1,433.771,313.717ZM69,319.25a10,10,0,0,1,0-20H260a10,10,0,1,1,0,20Zm78.239-48.182a91.978,91.978,0,0,1-6.662-183.35V69.729a10,10,0,0,1,10-10A119.558,119.558,0,0,1,270,179.153a10,10,0,0,1-10,10H242.012a91.973,91.973,0,0,1-91.382,81.976C149.506,271.129,148.371,271.109,147.239,271.067Zm-68.459-86.9a71.977,71.977,0,0,0,71.8,66.959v0a72.089,72.089,0,0,0,71.282-61.973H150.577a10,10,0,0,1-10-10V107.872A71.98,71.98,0,0,0,78.781,184.17Zm81.8-15.015,88.923,0a99.615,99.615,0,0,0-88.923-88.925Z" transform="translate(12 13)" fill="#aca8c1"/>
    </g>
  </g>
</svg>
