<svg xmlns="http://www.w3.org/2000/svg" xmlns:xlink="http://www.w3.org/1999/xlink" width="545" height="548" viewBox="0 0 545 548">
  <defs>
    <clipPath id="clip-nominal2">
      <rect width="545" height="548"/>
    </clipPath>
  </defs>
  <g id="nominal2" clip-path="url(#clip-nominal2)">
    <g id="estatisticas_1_" data-name="estatisticas (1)" transform="translate(17 18)">
      <path id="Caminho_14" data-name="Caminho 14" d="M76,240a44.833,44.833,0,0,0,31.207-12.625l44.148,22.074a44.995,44.995,0,1,0,85.246-13.84L296.609,175.6a45,45,0,0,0,62.332-54.059l52.133-39.1a44.941,44.941,0,1,0-18.016-23.988l-52.133,39.1A44.984,44.984,0,0,0,275.4,154.391L215.391,214.4a44.9,44.9,0,0,0-50.6,8.227l-44.148-22.074A44.994,44.994,0,1,0,76,240ZM436,30a15,15,0,1,1-15,15A15.019,15.019,0,0,1,436,30ZM316,120a15,15,0,1,1-15,15A15.019,15.019,0,0,1,316,120ZM196,240a15,15,0,1,1-15,15A15.019,15.019,0,0,1,196,240ZM76,180a15,15,0,1,1-15,15A15.019,15.019,0,0,1,76,180Zm0,0" fill="#aca8c1"/>
      <path id="Caminho_15" data-name="Caminho 15" d="M497,482H481V165a15,15,0,0,0-15-15H406a15,15,0,0,0-15,15V482H361V255a15,15,0,0,0-15-15H286a15,15,0,0,0-15,15V482H241V375a15,15,0,0,0-15-15H166a15,15,0,0,0-15,15V482H121V315a15,15,0,0,0-15-15H46a15,15,0,0,0-15,15V482H15a15,15,0,0,0,0,30H497a15,15,0,0,0,0-30ZM421,180h30V482H421ZM301,270h30V482H301ZM181,390h30v92H181ZM61,330H91V482H61Zm0,0" fill="#aca8c1"/>
    </g>
  </g>
</svg>
