<svg xmlns="http://www.w3.org/2000/svg" xmlns:xlink="http://www.w3.org/1999/xlink" width="545" height="548" viewBox="0 0 545 548">
  <defs>
    <clipPath id="clip-ordinal2">
      <rect width="545" height="548"/>
    </clipPath>
  </defs>
  <g id="ordinal2" clip-path="url(#clip-ordinal2)">
    <g id="bbb" transform="translate(16.399 18)">
      <g id="Grupo_108" data-name="Grupo 108">
        <g id="Grupo_107" data-name="Grupo 107">
          <path id="Caminho_29" data-name="Caminho 29" d="M488.4,492H466.466V173.536a26.913,26.913,0,0,0-26.882-26.882H390.56a26.913,26.913,0,0,0-26.882,26.882V492H307.986V317.825A26.912,26.912,0,0,0,281.1,290.943H232.08A26.913,26.913,0,0,0,205.2,317.825V492H149.506V401.8a26.913,26.913,0,0,0-26.882-26.882H73.6A26.913,26.913,0,0,0,46.717,401.8V492H23.6a10,10,0,0,0,0,20H488.4a10,10,0,1,0,0-20ZM129.5,492H66.716V401.8a6.889,6.889,0,0,1,6.882-6.882h49.024A6.889,6.889,0,0,1,129.5,401.8V492Zm158.481,0H225.2V317.825a6.889,6.889,0,0,1,6.882-6.882H281.1a6.89,6.89,0,0,1,6.882,6.882Zm158.481,0H383.678V173.536a6.889,6.889,0,0,1,6.882-6.882h49.024a6.889,6.889,0,0,1,6.882,6.882V492Z" fill="#aca8c1"/>
        </g>
      </g>
      <g id="Grupo_110" data-name="Grupo 110">
        <g id="Grupo_109" data-name="Grupo 109">
          <path id="Caminho_30" data-name="Caminho 30" d="M466.442,10.516A9.965,9.965,0,0,0,455.95.024c-.161-.007-.32-.024-.484-.024h-60.5a10,10,0,0,0,0,20h37.357l-98.857,98.858-37.28-37.28a10,10,0,0,0-14.142,0L102.275,261.348a10,10,0,0,0,14.142,14.141l172.7-172.7,37.28,37.28a10,10,0,0,0,14.143,0L446.466,34.143v33.81a10,10,0,0,0,20,0V11C466.466,10.837,466.449,10.678,466.442,10.516Z" fill="#aca8c1"/>
        </g>
      </g>
      <g id="Grupo_112" data-name="Grupo 112">
        <g id="Grupo_111" data-name="Grupo 111">
          <circle id="Elipse_1" data-name="Elipse 1" cx="10" cy="10" r="10" transform="translate(65.64 293.31)" fill="#aca8c1"/>
        </g>
      </g>
    </g>
  </g>
</svg>
