<svg viewBox="0 0 539 542">
  <defs>
    <clipPath id="clip-ordinalnova">
      <rect width="539" height="542"/>
    </clipPath>
  </defs>
  <g id="ordinalnova" clip-path="url(#clip-ordinalnova)">
    <g id="ordinal" transform="translate(-3)">
      <path id="ordinalnova-2" data-name="ordinalnova" d="M13,512a10,10,0,0,1,0-20H36.117V401.8A26.912,26.912,0,0,1,63,374.918h49.024A26.912,26.912,0,0,1,138.906,401.8V492H194.6V317.825a26.913,26.913,0,0,1,26.88-26.882H270.5a26.913,26.913,0,0,1,26.886,26.882V492h55.692V173.536a26.912,26.912,0,0,1,26.882-26.882h49.024a26.914,26.914,0,0,1,26.882,26.882V492H477.8a10,10,0,1,1,0,20ZM373.078,173.536V492h62.789V173.536a6.89,6.89,0,0,0-6.882-6.882H379.96A6.888,6.888,0,0,0,373.078,173.536ZM214.6,317.825V492h62.781V317.825a6.89,6.89,0,0,0-6.881-6.882H221.482A6.891,6.891,0,0,0,214.6,317.825ZM56.116,401.8V492H118.9V401.8a6.888,6.888,0,0,0-6.878-6.881H63A6.888,6.888,0,0,0,56.116,401.8ZM55.04,303.31a10,10,0,1,1,10,10A10,10,0,0,1,55.04,303.31Zm36.635-27.82a10,10,0,0,1,0-14.142L271.444,81.578a10,10,0,0,1,14.143,0l37.28,37.28L421.723,20H384.366a10,10,0,1,1,0-20h60.5c.164,0,.322.017.483.024a9.965,9.965,0,0,1,10.492,10.491c.007.162.024.321.024.484V67.953a10,10,0,1,1-20,0V34.143L329.94,140.069a10,10,0,0,1-14.143,0l-37.281-37.28-172.7,172.7a10,10,0,0,1-14.143,0Z" transform="translate(26.999 18)" fill="#aca8c1"/>
    </g>
  </g>
</svg>
