<svg viewBox="0 0 507 543">
  <defs>
    <clipPath id="clip-população2">
      <rect width="507" height="543"/>
    </clipPath>
  </defs>
  <g id="população2" clip-path="url(#clip-população2)">
    <g id="populacao_1_" data-name="populacao (1)" transform="translate(-4 11)">
      <g id="Grupo_2" data-name="Grupo 2">
        <g id="Grupo_1" data-name="Grupo 1">
          <path id="Caminho_1" data-name="Caminho 1" d="M296,432H280a24,24,0,0,0,0,48h16a24,24,0,0,0,0-48Zm0,32H280a8,8,0,0,1,0-16h16a8,8,0,0,1,0,16Z" fill="#aca8c1"/>
        </g>
      </g>
      <g id="Grupo_4" data-name="Grupo 4">
        <g id="Grupo_3" data-name="Grupo 3">
          <path id="Caminho_2" data-name="Caminho 2" d="M447.872,360H448V224h24a8,8,0,0,0,8-8V160a40.045,40.045,0,0,0-40-40h-4.32a48,48,0,1,0-71.36,0H360a39.586,39.586,0,0,0-24,8.208V120a40.045,40.045,0,0,0-40-40h-4.32a48,48,0,1,0-71.36,0H216a40.045,40.045,0,0,0-40,40v8.208A39.586,39.586,0,0,0,152,120h-4.32a48,48,0,1,0-71.36,0H72a40.045,40.045,0,0,0-40,40v56a8,8,0,0,0,8,8H64V360h.128A238.767,238.767,0,0,0,16,504a8,8,0,0,0,8,8H488a8,8,0,0,0,8-8A238.768,238.768,0,0,0,447.872,360Zm26.888,96H368a8,8,0,0,1,0-16h16a24,24,0,0,0,0-48H304a8,8,0,0,1,0-16h16a24,24,0,0,0,0-48H280a8,8,0,0,1,0-16h91.216A224.669,224.669,0,0,1,474.76,456ZM400,56a32,32,0,1,1-32,32A32.032,32.032,0,0,1,400,56ZM336,176V160a24.029,24.029,0,0,1,24-24h80a24.029,24.029,0,0,1,24,24v48H448V160H432V341.056a243.194,243.194,0,0,0-24-22.64V224H392v82.4q-7.776-5.376-16-10.112V296h-.5c-2.48-1.432-4.968-2.832-7.5-4.176V160H352v48H336Zm-8,48h24v60.1a237.921,237.921,0,0,0-48-15.272V184h16v32A8,8,0,0,0,328,224ZM256,16a32,32,0,1,1-32,32A32.032,32.032,0,0,1,256,16ZM192,160V120a24.029,24.029,0,0,1,24-24h80a24.029,24.029,0,0,1,24,24v48H304V120H288V266.176c-.216-.032-.44-.04-.656-.064q-6.912-.912-13.952-1.416c-.76-.056-1.52-.128-2.28-.176-2.36-.144-4.728-.24-7.112-.32V184H248v80.2c-2.376.08-4.752.176-7.112.32-.76.048-1.52.12-2.28.176q-7.032.5-13.952,1.416c-.216.032-.44.04-.656.064V120H208v48H192Zm-8,64a8,8,0,0,0,8-8V184h16v84.832A237.9,237.9,0,0,0,160,284.1V224ZM112,56A32,32,0,1,1,80,88,32.032,32.032,0,0,1,112,56ZM64,160v48H48V160a24.029,24.029,0,0,1,24-24h80a24.029,24.029,0,0,1,24,24v48H160V160H144V291.824A239.3,239.3,0,0,0,120,306.4V224H104v94.424a241.317,241.317,0,0,0-24,22.64V160Zm56,336H32.144A223.155,223.155,0,0,1,91.656,352l68.808-.016A7.635,7.635,0,0,1,168,359.92a8.082,8.082,0,0,1-2.352,5.744A7.888,7.888,0,0,1,160.016,368H143.984A24,24,0,0,0,144,416h80a8,8,0,0,1,.04,16H95.952A24,24,0,0,0,96,480h24a8,8,0,0,1,0,16Zm22.531-.008A23.736,23.736,0,0,0,144,488a24.029,24.029,0,0,0-24-24H96a8,8,0,0,1-.048-16H224.04a24,24,0,0,0-.04-48H144a8,8,0,0,1-.016-16h16.04a23.759,23.759,0,0,0,16.968-7.048A24.25,24.25,0,0,0,184,359.512a23.558,23.558,0,0,0-23.536-23.528L108,335.992a223.323,223.323,0,0,1,109.632-52.64q9.42-1.62,18.776-2.456c.3-.024.608-.04.9-.064a220.877,220.877,0,0,1,37.376,0c.3.024.608.04.9.064q9.36.828,18.776,2.456a222.443,222.443,0,0,1,44.656,12.64H280a24,24,0,0,0,0,48h40a8,8,0,0,1,0,16H304a24,24,0,0,0,0,48h80a8,8,0,0,1,0,16H368a24,24,0,0,0,0,48H477.68a223.637,223.637,0,0,1,2.176,24Z" fill="#aca8c1"/>
        </g>
      </g>
    </g>
  </g>
</svg>
