<svg viewBox="0 0 7447 7024">
  <defs>
    <clipPath id="clip-populaçãonova">
      <rect width="7447" height="7024"/>
    </clipPath>
  </defs>
  <g id="populaçãonova" clip-path="url(#clip-populaçãonova)">
    <path id="bolinhazinha1" d="M790.027,432H576.416C399.76,432,256,575.76,256,752.416s143.76,320.416,320.416,320.416H790.027c176.656,0,320.416-143.76,320.416-320.416S966.683,432,790.027,432Zm0,427.221H576.416a106.805,106.805,0,1,1,0-213.611H790.027a106.805,106.805,0,1,1,0,213.611Z" transform="translate(3442 5335.719)" fill="#aca8c1"/>
    <path id="pessoas" d="M5781.782,4806.242h1.708V2990.551h320.416a106.776,106.776,0,0,0,106.806-106.805V2136.108c0-294.463-239.564-534.027-534.027-534.027H5619.01c101.892-113.534,164.48-262.955,164.48-427.222,0-353.419-287.413-640.832-640.833-640.832s-640.832,287.413-640.832,640.832c0,164.267,62.587,313.687,164.48,427.222h-57.675c-120.69,0-230.914,41.761-320.417,109.582V1602.081c0-294.463-239.565-534.027-534.027-534.027h-57.675c101.892-113.534,164.48-262.955,164.48-427.222C3860.994,287.413,3573.58,0,3220.161,0s-640.832,287.413-640.832,640.832c0,164.267,62.588,313.687,164.48,427.222h-57.675c-294.462,0-534.027,239.564-534.027,534.027v109.582c-89.5-67.821-199.726-109.582-320.416-109.582h-57.675c101.892-113.534,164.48-262.955,164.48-427.222,0-353.419-287.413-640.832-640.832-640.832S656.832,821.44,656.832,1174.859c0,164.267,62.588,313.687,164.48,427.222H763.638c-294.462,0-534.027,239.564-534.027,534.027v747.638a106.776,106.776,0,0,0,106.805,106.805H656.832V4806.242h1.709C255.351,5342.191,16,6008.016,16,6728.739a106.776,106.776,0,0,0,106.805,106.806H6317.518a106.776,106.776,0,0,0,106.805-106.806C6424.323,6008.016,6184.972,5342.191,5781.782,4806.242Zm358.973,1281.665H4715.437a106.805,106.805,0,0,1,0-213.611h213.611c176.656,0,320.416-143.76,320.416-320.417s-143.76-320.416-320.416-320.416H3860.994a106.805,106.805,0,1,1,0-213.61H4074.6c176.656,0,320.416-143.761,320.416-320.416s-143.76-320.417-320.416-320.417H3540.577a106.805,106.805,0,1,1,0-213.611h1217.8C5451.753,4583.019,5962.283,5273.943,6140.755,6087.907Zm-998.1-5340.269c235.613,0,427.222,191.609,427.222,427.222s-191.609,427.222-427.222,427.222-427.221-191.609-427.221-427.222S4907.045,747.638,5142.658,747.638ZM4288.215,2349.719V2136.108c0-176.656,143.76-320.416,320.417-320.416H5676.686c176.656,0,320.416,143.76,320.416,320.416V2776.94H5783.491V2136.108H5569.88V4553.327a3246.792,3246.792,0,0,0-320.417-302.259V2990.551H5035.853v1100.1q-103.814-71.773-213.61-135V3951.8h-6.729c-33.109-19.118-66.326-37.809-100.077-55.752V2136.108h-213.61V2776.94H4288.215ZM4181.41,2990.551h320.417v802.322a3176.432,3176.432,0,0,0-640.833-203.892V2456.524H4074.6v427.222A106.776,106.776,0,0,0,4181.41,2990.551ZM3220.161,213.611c235.613,0,427.221,191.609,427.221,427.222s-191.609,427.222-427.221,427.222S2792.94,876.445,2792.94,640.832,2984.549,213.611,3220.161,213.611Zm-854.443,1922.5V1602.081c0-176.656,143.76-320.416,320.416-320.416H3754.188c176.656,0,320.417,143.76,320.417,320.416v640.832H3860.994V1602.081H3647.383V3553.628c-2.884-.427-5.874-.534-8.758-.854q-92.28-12.176-186.269-18.9c-10.146-.748-20.293-1.709-30.439-2.349-31.508-1.923-63.122-3.2-94.95-4.272V2456.524H3113.356V3527.248c-31.722,1.068-63.442,2.35-94.95,4.272-10.146.641-20.293,1.6-30.44,2.349q-93.881,6.729-186.268,18.9c-2.884.427-5.875.534-8.759.854V1602.081H2579.329v640.832H2365.719Zm-106.805,854.443a106.776,106.776,0,0,0,106.805-106.805V2456.524h213.611V3589.088c-222.9,45.392-437.261,114.6-640.832,203.785V2990.551ZM1297.665,747.638c235.613,0,427.222,191.609,427.222,427.222s-191.609,427.222-427.222,427.222-427.222-191.609-427.222-427.222S1062.052,747.638,1297.665,747.638ZM656.832,2136.108V2776.94H443.222V2136.108c0-176.656,143.76-320.416,320.416-320.416H1831.692c176.656,0,320.416,143.76,320.416,320.416V2776.94H1938.5V2136.108H1724.886V3896.047a3194.766,3194.766,0,0,0-320.416,194.6v-1100.1H1190.859V4251.175a3221.715,3221.715,0,0,0-320.416,302.259V2136.108ZM1404.47,6621.934H231.533c26.167-740.7,323.3-1413.356,794.525-1922.5l918.633-.214c55.539,0,100.61,45.072,100.61,105.951a107.9,107.9,0,0,1-31.4,76.686,105.315,105.315,0,0,1-75.191,31.187H1724.672c-176.549,0-320.2,143.76-320.2,320.416s143.76,320.416,320.416,320.416H2792.94a106.913,106.913,0,0,1,106.805,106.806c0,58.956-47.635,106.805-106.271,106.805H1083.413c-176.336,0-319.775,143.76-319.775,320.416s143.76,320.417,320.416,320.417H1404.47a106.805,106.805,0,1,1,0,213.61Zm300.8-.107c11.935-33.51,19.612-69.143,19.612-106.7,0-176.656-143.76-320.417-320.416-320.417H1084.054a106.913,106.913,0,0,1-106.805-106.805c0-58.956,47.635-106.806,106.165-106.806H2793.474c176.442,0,319.882-143.76,319.882-320.416s-143.76-320.417-320.417-320.417H1724.886a106.913,106.913,0,0,1-106.805-106.806c0-58.956,47.849-106.805,106.592-106.805h214.145c85.658,0,166.082-33.324,226.534-94.1,60.238-60.559,93.562-141.3,93.562-232.836,0-173.239-140.983-314.115-314.221-314.115l-700.43.107c405.54-357.691,908.7-606.548,1463.661-702.78q125.764-21.628,250.673-32.789c4.058-.321,8.117-.534,12.069-.854a2948.837,2948.837,0,0,1,498.995,0c4.058.32,8.117.534,12.069.854q124.963,11.054,250.672,32.789a2969.753,2969.753,0,0,1,596.188,168.753h-788.01c-176.656,0-320.416,143.76-320.416,320.416s143.76,320.417,320.416,320.417H4074.6a106.805,106.805,0,1,1,0,213.61H3860.994c-176.656,0-320.417,143.76-320.417,320.416s143.76,320.417,320.417,320.417H4929.048a106.805,106.805,0,0,1,0,213.61H4715.437c-176.656,0-320.417,143.76-320.417,320.416s143.761,320.417,320.417,320.417h1464.3a2985.832,2985.832,0,0,1,29.051,320.416Z" transform="translate(477.838 93.228)" fill="#aca8c1"/>
  </g>
</svg>
